<svg height="512" viewBox="0 0 256 256" width="512" xmlns="http://www.w3.org/2000/svg"><circle cx="37.425" cy="133.176" fill="#ffb69f" r="15.5"/><circle cx="97.81" cy="133.176" fill="#ffb69f" r="15.5"/><path d="m148 148.676h20.385a20 20 0 0 1 20 20v80.468a0 0 0 0 1 0 0h-60.385a0 0 0 0 1 0 0v-80.468a20 20 0 0 1 20-20z" fill="#72c1e8"/><circle cx="158.195" cy="133.176" fill="#ffb69f" r="15.5"/><path d="m208.388 148.676h20.385a20 20 0 0 1 20 20v80.468a0 0 0 0 1 0 0h-60.385a0 0 0 0 1 0 0v-80.468a20 20 0 0 1 20-20z" fill="#fc5d3d"/><circle cx="218.581" cy="133.176" fill="#ffb69f" r="15.5"/><path d="m47.617 148.676h-20.385a20 20 0 0 0 -20 20v80.467h60.385v-80.467a20 20 0 0 0 -20-20z" fill="#fc5d3d"/><circle cx="37.425" cy="188.35" fill="#ffb69f" r="15.5"/><path d="m108 148.676h-20.383a20 20 0 0 0 -20 20v80.467h60.383v-80.467a20 20 0 0 0 -20-20z" fill="#72c1e8"/><circle cx="97.81" cy="188.35" fill="#ffb69f" r="15.5"/><path d="m148 203.85h20.385a20 20 0 0 1 20 20v25.293a0 0 0 0 1 0 0h-60.385a0 0 0 0 1 0 0v-25.293a20 20 0 0 1 20-20z" fill="#fc5d3d"/><circle cx="158.195" cy="188.35" fill="#ffb69f" r="15.5"/><path d="m208.388 203.85h20.385a20 20 0 0 1 20 20v25.293a0 0 0 0 1 0 0h-60.385a0 0 0 0 1 0 0v-25.293a20 20 0 0 1 20-20z" fill="#72c1e8"/><circle cx="218.581" cy="188.35" fill="#ffb69f" r="15.5"/><path d="m235.333 6.864h-215.845a10 10 0 0 0 -10 10v59.975a10 10 0 0 0 10 10h94.628a5 5 0 0 1 4.7 3.3l8.59 23.822 8.594-23.818a5 5 0 0 1 4.7-3.3h94.629a10 10 0 0 0 10-10v-59.979a10 10 0 0 0 -9.996-10z" fill="#f0c020"/><path d="m55.159 48.85h21.5v21.5h-21.5z" fill="#fc5d3d"/><path d="m96.409 36.85h21.5v33.5h-21.5z" fill="#fc5d3d"/><path d="m137.659 48.85h21.5v21.5h-21.5z" fill="#72c1e8"/><path d="m178.909 27.35h21.5v43h-21.5z" fill="#72c1e8"/><path d="m118 173.767a2.5 2.5 0 0 1 -2.5-2.5v-2.592a7.509 7.509 0 0 0 -7.5-7.5 2.5 2.5 0 1 1 0-5 12.514 12.514 0 0 1 12.5 12.5v2.592a2.5 2.5 0 0 1 -2.5 2.5z" fill="#c5e5ff"/><path d="m178.388 241.643a2.5 2.5 0 0 1 -2.5-2.5v-2a2.5 2.5 0 0 1 5 0v2a2.5 2.5 0 0 1 -2.5 2.5zm0-12a2.5 2.5 0 0 1 -2.5-2.5v-3.29a7.508 7.508 0 0 0 -7.5-7.5 2.5 2.5 0 0 1 0-5 12.514 12.514 0 0 1 12.5 12.5v3.29a2.5 2.5 0 0 1 -2.5 2.497z" fill="#ffcbc2"/><path d="m235.333 62.915a2.5 2.5 0 0 1 -2.5-2.5v-2.015a2.5 2.5 0 1 1 5 0v2.017a2.5 2.5 0 0 1 -2.5 2.498zm0-13.017a2.5 2.5 0 0 1 -2.5-2.5v-27.534a.5.5 0 0 0 -.5-.5h-13.752a2.5 2.5 0 0 1 0-5h13.752a5.506 5.506 0 0 1 5.5 5.5v27.536a2.5 2.5 0 0 1 -2.5 2.5z" fill="#f9e5af"/><path d="m166.33 119.75a2.5 2.5 0 0 0 .28 3.51c0 .01 0 .01.01.01a2.5 2.5 0 0 0 3.24-3.81 2.581 2.581 0 0 0 -3.53.29z"/><path d="m230.879 146.283a18 18 0 1 0 -24.6 0 22.426 22.426 0 0 0 -17.9 12.1 22.547 22.547 0 0 0 -17.895-12.1 18 18 0 0 0 5.27-17.052 2.535 2.535 0 0 0 -2.98-1.89 2.492 2.492 0 0 0 -1.9 2.98 13 13 0 1 1 -12.68-10.14c.26 0 .52 0 .78.02a2.5 2.5 0 1 0 .29-4.99c-.38-.02-.73-.03-1.07-.03a17.965 17.965 0 0 0 -12.3 31.1 22.547 22.547 0 0 0 -17.9 12.1 22.428 22.428 0 0 0 -17.9-12.1 18 18 0 1 0 -24.6 0 22.426 22.426 0 0 0 -17.9 12.1 22.549 22.549 0 0 0 -17.891-12.1 18 18 0 1 0 -24.6 0 22.538 22.538 0 0 0 -20.4 22.4v80.46a2.5 2.5 0 0 0 5 0v-25.291a17.571 17.571 0 0 1 17.5-17.5h20.417a17.571 17.571 0 0 1 17.5 17.5v25.29a2.5 2.5 0 0 0 5 0v-25.29a17.571 17.571 0 0 1 17.5-17.5h20.38a17.571 17.571 0 0 1 17.5 17.5v25.29a2.5 2.5 0 0 0 5 0v-25.29a17.571 17.571 0 0 1 17.5-17.5h20.39a17.571 17.571 0 0 1 17.5 17.5v25.29a2.5 2.5 0 0 0 5 0v-25.29a17.571 17.571 0 0 1 17.5-17.5h20.38a17.558 17.558 0 0 1 17.5 17.5v25.29a2.5 2.5 0 0 0 5 0v-80.46a22.478 22.478 0 0 0 -20.391-22.397zm-25.3-13.108a13 13 0 1 1 13 13 13.015 13.015 0 0 1 -12.998-13zm-120.771 0a13 13 0 1 1 13 13 13.015 13.015 0 0 1 -12.998-13zm-60.385 0a13 13 0 1 1 13 13 13.014 13.014 0 0 1 -12.998-13zm13 68.175a13 13 0 1 1 13-13 13.014 13.014 0 0 1 -12.998 13zm12.3.1a18 18 0 1 0 -24.608 0 22.49 22.49 0 0 0 -15.385 8.285v-41.055a17.571 17.571 0 0 1 17.5-17.5h20.39a17.571 17.571 0 0 1 17.5 17.5v41.055a22.486 22.486 0 0 0 -15.391-8.283zm48.081-.1a13 13 0 1 1 13-13 13.014 13.014 0 0 1 -12.994 13zm12.3.1a18 18 0 1 0 -24.606 0 22.346 22.346 0 0 0 -15.387 8.261v-41.031a17.571 17.571 0 0 1 17.5-17.5h20.389a17.571 17.571 0 0 1 17.5 17.5v41.034a22.346 22.346 0 0 0 -15.387-8.261zm48.082-.1a13 13 0 1 1 13-13 13.014 13.014 0 0 1 -12.986 13zm12.3.1a18 18 0 1 0 -24.608 0 22.486 22.486 0 0 0 -15.391 8.283v-41.053a17.571 17.571 0 0 1 17.5-17.5h20.39a17.571 17.571 0 0 1 17.5 17.5v41.055a22.49 22.49 0 0 0 -15.377-8.283zm48.082-.1a13 13 0 1 1 13-13 13.014 13.014 0 0 1 -12.987 13zm12.3.1a18 18 0 1 0 -24.608 0 22.482 22.482 0 0 0 -15.387 8.279v-41.049a17.571 17.571 0 0 1 17.5-17.5h20.38a17.571 17.571 0 0 1 17.5 17.5v41.051a22.482 22.482 0 0 0 -15.368-8.278z"/><path d="m19.49 89.34h94.63a2.5 2.5 0 0 1 2.35 1.65l8.59 23.82a2.5 2.5 0 0 0 4.7 0l8.59-23.82a2.5 2.5 0 0 1 2.35-1.65h75.23a2.5 2.5 0 0 0 0-5h-75.23a7.515 7.515 0 0 0 -7.05 4.95l-6.24 17.3-6.24-17.3a7.515 7.515 0 0 0 -7.05-4.95h-94.63a7.522 7.522 0 0 1 -7.5-7.5v-59.98a7.529 7.529 0 0 1 7.5-7.5h215.84a7.529 7.529 0 0 1 7.5 7.5v59.98a7.5 7.5 0 0 1 -7.05 7.49 2.5 2.5 0 1 0 .3 4.99 12.507 12.507 0 0 0 11.75-12.48v-59.98a12.517 12.517 0 0 0 -12.5-12.5h-215.84a12.517 12.517 0 0 0 -12.5 12.5v59.98a12.517 12.517 0 0 0 12.5 12.5z"/><circle cx="225.93" cy="86.84" r="2.5"/><path d="m37.42 29.85a2.5 2.5 0 1 0 0-5h-6.88a2.5 2.5 0 0 0 -2.5 2.5v43a2.5 2.5 0 0 0 2.5 2.5h193.74a2.5 2.5 0 0 0 0-5h-21.37v-40.5a2.5 2.5 0 0 0 -2.5-2.5h-21.5a2.5 2.5 0 0 0 -2.5 2.5v40.5h-14.75v-19a2.5 2.5 0 0 0 -2.5-2.5h-21.5a2.5 2.5 0 0 0 -2.5 2.5v19h-14.75v-31a2.5 2.5 0 0 0 -2.5-2.5h-21.5a2.5 2.5 0 0 0 -2.5 2.5v31h-14.75v-19a2.5 2.5 0 0 0 -2.5-2.5h-21.5a2.5 2.5 0 0 0 -2.5 2.5v19h-19.62v-16.5h4.38a2.5 2.5 0 1 0 0-5h-4.38v-16.5zm143.99 0h16.5v38h-16.5zm-41.25 21.5h16.5v16.5h-16.5zm-41.25-12h16.5v28.5h-16.5zm-41.25 12h16.5v16.5h-16.5z"/></svg>